<svg id="Capa_1" enable-background="new 0 0 497 497" height="512" viewBox="0 0 497 497" width="512" xmlns="http://www.w3.org/2000/svg"><g><g><g><path d="m189.314 194.686c-30.717 0-61.433 0-92.15 0 0 10.211-4.41 19.542-10.611 28.515-14.47 20.937-5.263 51.329 17.785 58.222 27.696 8.282 56.179 14.08 84.975 17.433v-104.17z" fill="#d6948c"/><path d="m410.184 223.201c-6.201-8.972-10.611-18.303-10.61-28.515-30.629 0-61.259 0-91.888 0v104.138c28.707-3.358 57.101-9.145 84.713-17.402 23.048-6.891 32.254-37.284 17.785-58.221z" fill="#e8b5b1"/></g><g><g><path d="m129.01 376.94c-6.937 15.909-10.798 33.453-10.798 51.888v20.582h67.622v-29.365-43.105z" fill="#ffcbbe"/><path d="m367.99 376.94c6.937 15.909 10.798 33.453 10.798 51.888v20.582h-67.622v-29.365-43.105z" fill="#ffddcf"/></g><path d="m292.293 306.119c-4.983-1.784-10.102-3.269-15.332-4.44l-91.127 15.065v123.3l8.783 9.365h129.96v-41.006c15.483-9.218 30.481-20.096 43.412-31.464-14.091-32.316-41.223-58.479-75.696-70.82z" fill="#ff8e9e"/><path d="m276.96 301.679c-9.202-2.06-18.74-3.14-28.462-3.14-15.364 0-30.11 2.674-43.809 7.58-33.179 11.882-61.04 37.246-75.68 70.821 12.926 11.364 27.918 22.239 43.396 31.455v20.433 20.582h22.212v-20.582c.065-56.614 33.845-105.332 82.343-127.149z" fill="#ea5b70"/></g><g><g><g fill="#ffcbbe"><path d="m92.327 117.346c-21.444 0-38.827 17.384-38.827 38.827 0 23.306 20.408 41.402 43.665 38.512 19.161-2.381 33.99-18.707 33.99-38.512 0-21.443-17.384-38.827-38.828-38.827z"/><path d="m404.673 117.346c-21.444 0-38.827 17.384-38.827 38.827 0 19.716 14.695 36.016 33.729 38.512 23.242 3.048 43.926-15.03 43.926-38.512-.001-21.443-17.385-38.827-38.828-38.827z"/></g></g></g><g><path d="m296.786 7.69c-15.732-5.134-32.073-7.69-48.425-7.69l-135.638 92.594v126.883l135.638 92.594c15.125 0 30.258-2.216 44.52-6.453 38.904-11.561 71.451-37.886 91.155-72.477v-119.562z" fill="#ffddcf"/><path d="m248.361 0c-16.906 0-33.18 2.697-48.425 7.67l-87.213 124.645-.001.001v47.44 53.451c26.857 47.103 77.537 78.863 135.638 78.863-86.174-86.175-86.174-225.894.001-312.07z" fill="#ffcbbe"/></g><g><path d="m200.205 148.223h-24.568c-10.321 0-18.015 9.518-15.851 19.61l1.361 6.346c2.287 10.665 11.713 18.285 22.621 18.285h8.307c10.908 0 20.334-7.619 22.621-18.285l1.361-6.346c2.162-10.092-5.531-19.61-15.852-19.61z" fill="#55dafe"/><path d="m299.464 148.223h24.568c10.322 0 18.015 9.518 15.851 19.61l-1.361 6.346c-2.287 10.665-11.713 18.285-22.621 18.285h-8.307c-10.908 0-20.334-7.619-22.621-18.285l-1.361-6.346c-2.163-10.092 5.53-19.61 15.852-19.61z" fill="#7ce3ff"/></g><g><path d="m401.06 123.849h.007c-11.5-54.807-51.774-99.023-104.282-116.158v34.699c0 30.361 18.043 57.681 45.621 69.636 3.316 1.437 6.393 2.928 9.462 4.745 14.911 8.856 23.507 25.373 22.298 42.674-.988 14.157-3.464 28.262-7.445 42.081v.001c-3.79 13.152 3.434 27.536 17.314 31.615 6.796-11.929 12.064-24.824 15.539-38.454 3.149-12.354 4.823-25.315 4.823-38.65 0-11.038-1.157-21.801-3.337-32.189z" fill="#e8b5b1"/><g fill="#d6948c"><path d="m150.093 113.82c-.183.066.184-.066 0 0z"/><path d="m95.657 123.858h.003c-4.884 23.28-4.438 47.541 1.505 70.829 3.389 13.279 8.564 26.254 15.559 38.521 13.935-3.954 21.395-18.355 17.555-31.682v-.001c-3.982-13.819-6.457-27.925-7.446-42.083-1.208-17.3 7.386-33.816 22.296-42.672 2.999-1.782 6.142-3.299 9.341-4.691 27.431-11.929 45.467-39.377 45.467-69.566v-34.843c-52.516 17.132-92.785 61.366-104.28 116.188z"/></g></g><path d="m283.584 230.516c-4.314-1.479-9.12-.387-12.301 2.881-5.858 6.017-14.045 9.755-23.107 9.755-9.069 0-17.261-3.743-23.12-9.768-3.075-3.163-7.743-4.186-11.917-2.76-5.914 2.021-9.193 8.384-7.329 14.349 7.013 22.447 25.519 40.777 35.712 49.555 4.016 3.46 9.947 3.457 13.963-.002 10.152-8.744 28.543-26.957 35.62-49.274 1.938-6.114-1.451-12.654-7.521-14.736z" fill="#d6948c"/><path d="m269.891 179.885c-3.123-2.721-7.86-2.396-10.581.728-5.726 6.57-15.899 6.563-21.62-.001-2.723-3.124-7.46-3.447-10.582-.727-3.123 2.722-3.447 7.46-.727 10.582 11.728 13.454 32.57 13.391 44.237-.001 2.722-3.122 2.396-7.861-.727-10.581z" fill="#313d40"/></g><path d="m222.027 175.752 1.361-6.347c.684-3.188.696-6.418.091-9.519 17.577-1.814 35.105-1.817 52.709 0-.604 3.101-.592 6.331.091 9.519l1.36 6.346c3.008 14.03 15.605 24.213 29.954 24.213h8.307c14.349 0 26.946-10.183 29.954-24.213l1.36-6.346c3.169-14.777-8.103-28.682-23.184-28.682-25.817 0-31.173-1.276-39.214 5.057-23.708-3.008-46.207-3.015-69.967 0-4.133-3.255-9.256-5.057-14.646-5.057h-24.569c-15.113 0-26.346 13.936-23.184 28.683l1.361 6.345c3.007 14.029 15.604 24.213 29.953 24.213h8.308c14.35 0 26.948-10.183 29.955-24.212zm77.437-20.028h24.568c5.551 0 9.678 5.118 8.518 10.537l-1.36 6.346c-1.536 7.16-7.965 12.357-15.288 12.357h-8.307c-7.323 0-13.752-5.197-15.288-12.357l-1.36-6.346c-1.155-5.39 2.961-10.537 8.517-10.537zm-90.741 10.536-1.361 6.347c-1.536 7.16-7.965 12.357-15.287 12.357h-8.308c-7.323 0-13.752-5.197-15.287-12.358l-1.361-6.345c-1.163-5.429 2.977-10.537 8.518-10.537h24.569c5.551 0 9.672 5.146 8.517 10.536z" fill="#4c5699"/><g><path d="m448.788 429.845v67.155h-70l-20-24.086 20-34.086 43.069-24.611c12-6.858 26.931 1.807 26.931 15.628z" fill="#efedff"/><path d="m118.212 438.828 20 34.086-20 24.086h-70v-67.155c0-13.821 14.931-22.485 26.931-15.628z" fill="#d4d4ff"/><g><path d="m259.719 411.411c-3.691-.85-7.456-1.275-11.219-1.275l-20 49.273 20 37.591h130.288v-58.172z" fill="#d4d4ff"/><path d="m237.281 411.411-119.068 27.417v58.172h130.287v-86.864c-3.764 0-7.528.425-11.219 1.275z" fill="#efedff"/></g></g></g></svg>